<svg width="61" height="61" viewBox="0 0 61 61" fill="none" xmlns="http://www.w3.org/2000/svg">
<g clip-path="url(#clip0_337649_348)">
<path d="M30.4999 5.08331C20.6637 5.08331 12.7083 13.0387 12.7083 22.875C12.7083 33.4737 23.9424 48.0883 28.5683 53.6546C29.5849 54.8746 31.4403 54.8746 32.457 53.6546C37.0574 48.0883 48.2916 33.4737 48.2916 22.875C48.2916 13.0387 40.3362 5.08331 30.4999 5.08331ZM30.4999 29.2291C26.9924 29.2291 24.1458 26.3825 24.1458 22.875C24.1458 19.3675 26.9924 16.5208 30.4999 16.5208C34.0074 16.5208 36.8541 19.3675 36.8541 22.875C36.8541 26.3825 34.0074 29.2291 30.4999 29.2291Z" fill="#FF543E"/>
</g>
<defs>
<clipPath id="clip0_337649_348">
<rect width="61" height="61" fill="white"/>
</clipPath>
</defs>
</svg>
