<svg width="60" height="60" viewBox="0 0 60 60" fill="none" xmlns="http://www.w3.org/2000/svg">
<g clip-path="url(#clip0_337649_333)">
<path d="M50 10H10C7.25 10 5 12.25 5 15V45C5 47.75 7.25 50 10 50H50C52.75 50 55 47.75 55 45V15C55 12.25 52.75 10 50 10ZM49 20.625L32.65 30.85C31.025 31.875 28.975 31.875 27.35 30.85L11 20.625C10.375 20.225 10 19.55 10 18.825C10 17.15 11.825 16.15 13.25 17.025L30 27.5L46.75 17.025C48.175 16.15 50 17.15 50 18.825C50 19.55 49.625 20.225 49 20.625Z" fill="#FF543E"/>
</g>
<defs>
<clipPath id="clip0_337649_333">
<rect width="60" height="60" fill="white"/>
</clipPath>
</defs>
</svg>
